# xmcd
#
# Track frame offsets: 
#        150
#        14612
#        26880
#        44390
#        59775
#        72107
#        85098
#        97625
#        111158
#        125863
#
# Disc length: 1860 seconds
#
# Revision: 0
# Processed by: cddbd v1.5.2PL0 Copyright (c) Steve Scherf et al.
# Submitted via: ExactAudioCopy v0.99pb2
#
DISCID=8907420a
DTITLE=Johnny Nash - Johnny Nash Collections
DYEAR=1900
DGENRE=Soul
TTITLE0=Guava Jelly
TTITLE1=I Can See Clearly Now
TTITLE2=For Your Love
TTITLE3=Cupid
TTITLE4=Hold Me Tight
TTITLE5=Let's Be Friends
TTITLE6=There Are More Questions Than Answers
TTITLE7=Stir It Up
TTITLE8=Tears On My Pillow 
TTITLE9=Wonderful World
EXTD=
EXTT0=
EXTT1=
EXTT2=
EXTT3=
EXTT4=
EXTT5=
EXTT6=
EXTT7=
EXTT8=
EXTT9=
PLAYORDER=
